<svg width="60" height="60" viewBox="0 0 60 60" fill="none" xmlns="http://www.w3.org/2000/svg">
<mask id="mask0_231_192" style="mask-type:alpha" maskUnits="userSpaceOnUse" x="0" y="0" width="60" height="60">
<rect width="60" height="60" fill="#D9D9D9"/>
</mask>
<g mask="url(#mask0_231_192)">
<path d="M8.125 51.875V38.125H11.875V48.125H21.875V51.875H8.125ZM38.125 51.875V48.125H48.125V38.125H51.875V51.875H38.125ZM17.9375 38.6731L15.2644 36.0625L19.4519 31.875H5.625V28.125H19.4519L15.2644 23.9375L17.9375 21.3269L26.6106 30L17.9375 38.6731ZM42.0625 38.6731L33.3894 30L42.0625 21.3269L44.7356 23.9375L40.5481 28.125H54.375V31.875H40.5481L44.7356 36.0625L42.0625 38.6731ZM8.125 21.875V8.125H21.875V11.875H11.875V21.875H8.125ZM48.125 21.875V11.875H38.125V8.125H51.875V21.875H48.125Z" fill="#1C1B1F"/>
<path d="M8.125 51.875V38.125H11.875V48.125H21.875V51.875H8.125ZM38.125 51.875V48.125H48.125V38.125H51.875V51.875H38.125ZM17.9375 38.6731L15.2644 36.0625L19.4519 31.875H5.625V28.125H19.4519L15.2644 23.9375L17.9375 21.3269L26.6106 30L17.9375 38.6731ZM42.0625 38.6731L33.3894 30L42.0625 21.3269L44.7356 23.9375L40.5481 28.125H54.375V31.875H40.5481L44.7356 36.0625L42.0625 38.6731ZM8.125 21.875V8.125H21.875V11.875H11.875V21.875H8.125ZM48.125 21.875V11.875H38.125V8.125H51.875V21.875H48.125Z" fill="url(#paint0_linear_231_192)"/>
</g>
<defs>
<linearGradient id="paint0_linear_231_192" x1="30" y1="8.125" x2="30" y2="51.875" gradientUnits="userSpaceOnUse">
<stop stop-color="#D0DDE4"/>
<stop offset="1" stop-color="#717AA1"/>
</linearGradient>
</defs>
</svg>
