<svg width="60" height="60" viewBox="0 0 60 60" fill="none" xmlns="http://www.w3.org/2000/svg">
<mask id="mask0_231_84" style="mask-type:alpha" maskUnits="userSpaceOnUse" x="0" y="0" width="60" height="60">
<rect width="60" height="60" fill="#D9D9D9"/>
</mask>
<g mask="url(#mask0_231_84)">
<path d="M31.875 26.875H35.625V21.875H40.625V18.125H35.625V13.125H31.875V18.125H26.875V21.875H31.875V26.875ZM26.875 36.875H40.625V33.125H26.875V36.875ZM20.7694 46.25C19.5065 46.25 18.4375 45.8125 17.5625 44.9375C16.6875 44.0625 16.25 42.9935 16.25 41.7306V8.26937C16.25 7.00646 16.6875 5.9375 17.5625 5.0625C18.4375 4.1875 19.5065 3.75 20.7694 3.75H38.125L51.25 16.875V41.7306C51.25 42.9935 50.8125 44.0625 49.9375 44.9375C49.0625 45.8125 47.9935 46.25 46.7306 46.25H20.7694ZM20.7694 42.5H46.7306C46.9231 42.5 47.0994 42.4198 47.2594 42.2594C47.4198 42.0994 47.5 41.9231 47.5 41.7306V18.75L36.25 7.5H20.7694C20.5769 7.5 20.4006 7.58021 20.2406 7.74062C20.0802 7.90062 20 8.07687 20 8.26937V41.7306C20 41.9231 20.0802 42.0994 20.2406 42.2594C20.4006 42.4198 20.5769 42.5 20.7694 42.5ZM10.7694 56.25C9.50646 56.25 8.4375 55.8125 7.5625 54.9375C6.6875 54.0625 6.25 52.9935 6.25 51.7306V18.75H10V51.7306C10 51.9231 10.0802 52.0994 10.2406 52.2594C10.4006 52.4198 10.5769 52.5 10.7694 52.5H36.25V56.25H10.7694Z" fill="#1C1B1F"/>
<path d="M31.875 26.875H35.625V21.875H40.625V18.125H35.625V13.125H31.875V18.125H26.875V21.875H31.875V26.875ZM26.875 36.875H40.625V33.125H26.875V36.875ZM20.7694 46.25C19.5065 46.25 18.4375 45.8125 17.5625 44.9375C16.6875 44.0625 16.25 42.9935 16.25 41.7306V8.26937C16.25 7.00646 16.6875 5.9375 17.5625 5.0625C18.4375 4.1875 19.5065 3.75 20.7694 3.75H38.125L51.25 16.875V41.7306C51.25 42.9935 50.8125 44.0625 49.9375 44.9375C49.0625 45.8125 47.9935 46.25 46.7306 46.25H20.7694ZM20.7694 42.5H46.7306C46.9231 42.5 47.0994 42.4198 47.2594 42.2594C47.4198 42.0994 47.5 41.9231 47.5 41.7306V18.75L36.25 7.5H20.7694C20.5769 7.5 20.4006 7.58021 20.2406 7.74062C20.0802 7.90062 20 8.07687 20 8.26937V41.7306C20 41.9231 20.0802 42.0994 20.2406 42.2594C20.4006 42.4198 20.5769 42.5 20.7694 42.5ZM10.7694 56.25C9.50646 56.25 8.4375 55.8125 7.5625 54.9375C6.6875 54.0625 6.25 52.9935 6.25 51.7306V18.75H10V51.7306C10 51.9231 10.0802 52.0994 10.2406 52.2594C10.4006 52.4198 10.5769 52.5 10.7694 52.5H36.25V56.25H10.7694Z" fill="url(#paint0_linear_231_84)"/>
</g>
<defs>
<linearGradient id="paint0_linear_231_84" x1="28.75" y1="3.75" x2="28.75" y2="56.25" gradientUnits="userSpaceOnUse">
<stop stop-color="#D0DDE4"/>
<stop offset="1" stop-color="#717AA1"/>
</linearGradient>
</defs>
</svg>
