<svg width="24" height="24" viewBox="0 0 24 24" fill="none" xmlns="http://www.w3.org/2000/svg">
<mask id="mask0_64_785" style="mask-type:alpha" maskUnits="userSpaceOnUse" x="0" y="0" width="24" height="24">
<rect width="24" height="24" fill="#D9D9D9"/>
</mask>
<g mask="url(#mask0_64_785)">
<path d="M1.38477 20.2307V18.7307H22.6153V20.2307H1.38477ZM4.30777 17.7307C3.8026 17.7307 3.37502 17.5557 3.02502 17.2057C2.67502 16.8557 2.50002 16.4282 2.50002 15.923V5.53849C2.50002 5.03333 2.67502 4.60574 3.02502 4.25574C3.37502 3.90574 3.8026 3.73074 4.30777 3.73074H19.6923C20.1974 3.73074 20.625 3.90574 20.975 4.25574C21.325 4.60574 21.5 5.03333 21.5 5.53849V15.923C21.5 16.4282 21.325 16.8557 20.975 17.2057C20.625 17.5557 20.1974 17.7307 19.6923 17.7307H4.30777ZM4.30777 16.2307H19.6923C19.7693 16.2307 19.8398 16.1987 19.9038 16.1347C19.9679 16.0706 20 16 20 15.923V5.53849C20 5.46149 19.9679 5.39099 19.9038 5.32699C19.8398 5.26283 19.7693 5.23074 19.6923 5.23074H4.30777C4.23077 5.23074 4.16027 5.26283 4.09627 5.32699C4.0321 5.39099 4.00002 5.46149 4.00002 5.53849V15.923C4.00002 16 4.0321 16.0706 4.09627 16.1347C4.16027 16.1987 4.23077 16.2307 4.30777 16.2307Z" fill="#A982B7"/>
</g>
</svg>
