<svg width="18" height="18" viewBox="0 0 18 18" fill="none" xmlns="http://www.w3.org/2000/svg">
<mask id="mask0_52_461" style="mask-type:alpha" maskUnits="userSpaceOnUse" x="0" y="0" width="18" height="18">
<rect width="18" height="18" fill="#D9D9D9"/>
</mask>
<g mask="url(#mask0_52_461)">
<path d="M13.2547 11.7332C13.2547 12.9512 12.8309 13.9876 11.9833 14.8425C11.1358 15.6975 10.1041 16.125 8.88822 16.125C7.67234 16.125 6.6394 15.6975 5.7894 14.8425C4.9394 13.9876 4.5144 12.9512 4.5144 11.7332V4.99031C4.5144 4.12494 4.8149 3.38938 5.4159 2.78363C6.01678 2.17788 6.7499 1.875 7.61528 1.875C8.48065 1.875 9.21384 2.17788 9.81484 2.78363C10.4158 3.38938 10.7163 4.12494 10.7163 4.99031V11.3726C10.7163 11.8803 10.5395 12.3136 10.1859 12.6728C9.83215 13.0319 9.40115 13.2114 8.8929 13.2114C8.38453 13.2114 7.95078 13.0331 7.59165 12.6765C7.23253 12.3199 7.05297 11.8853 7.05297 11.3726V4.78856H8.17778V11.3726C8.17778 11.5736 8.24534 11.7429 8.38047 11.8804C8.51559 12.0179 8.68365 12.0866 8.88465 12.0866C9.08553 12.0866 9.25353 12.0179 9.38866 11.8804C9.52378 11.7429 9.59134 11.5736 9.59134 11.3726V4.98319C9.58359 4.42931 9.39122 3.96031 9.01422 3.57619C8.63722 3.19206 8.1709 3 7.61528 3C7.06203 3 6.5944 3.19325 6.2124 3.57975C5.8304 3.96637 5.6394 4.43656 5.6394 4.99031V11.7332C5.63165 12.6399 5.94509 13.4111 6.57972 14.0466C7.21434 14.6822 7.98472 15 8.89084 15C9.78409 15 10.5434 14.6822 11.1688 14.0466C11.794 13.4111 12.1143 12.6399 12.1297 11.7332V4.78856H13.2547V11.7332Z" fill="white"/>
</g>
</svg>
