<svg width="18" height="18" viewBox="0 0 18 18" fill="none" xmlns="http://www.w3.org/2000/svg">
<mask id="mask0_52_456" style="mask-type:alpha" maskUnits="userSpaceOnUse" x="0" y="0" width="18" height="18">
<rect width="18" height="18" fill="#D9D9D9"/>
</mask>
<g mask="url(#mask0_52_456)">
<path d="M10.3703 16.125V14.1433L14.4418 10.0903C14.5351 10.0019 14.6358 9.93756 14.7439 9.89719C14.852 9.85681 14.9601 9.83663 15.0683 9.83663C15.1863 9.83663 15.3003 9.85869 15.4104 9.90281C15.5207 9.94706 15.6209 10.0134 15.711 10.1019L16.4047 10.8028C16.4855 10.8962 16.548 10.9972 16.5922 11.1058C16.6365 11.2144 16.6586 11.3231 16.6586 11.4317C16.6586 11.5403 16.6384 11.6509 16.5981 11.7634C16.5577 11.8759 16.4932 11.9788 16.4047 12.072L12.3519 16.125H10.3703ZM11.2644 15.2308H11.9769L14.4114 12.7845L14.0739 12.4209L13.7177 12.0765L11.2644 14.5183V15.2308ZM4.73081 16.125C4.35194 16.125 4.03125 15.9938 3.76875 15.7313C3.50625 15.4688 3.375 15.1481 3.375 14.7692V3.23081C3.375 2.85194 3.50625 2.53125 3.76875 2.26875C4.03125 2.00625 4.35194 1.875 4.73081 1.875H10.6875L14.625 5.8125V7.911H13.5V6.375H10.125V3H4.73081C4.67306 3 4.62019 3.02406 4.57219 3.07219C4.52406 3.12019 4.5 3.17306 4.5 3.23081V14.7692C4.5 14.8269 4.52406 14.8798 4.57219 14.9278C4.62019 14.9759 4.67306 15 4.73081 15H8.72587V16.125H4.73081ZM14.0739 12.4209L13.7177 12.0765L14.4114 12.7845L14.0739 12.4209Z" fill="white"/>
</g>
</svg>
