<svg width="18" height="18" viewBox="0 0 18 18" fill="none" xmlns="http://www.w3.org/2000/svg">
<mask id="mask0_52_466" style="mask-type:alpha" maskUnits="userSpaceOnUse" x="0" y="0" width="18" height="18">
<rect x="18" y="7.86805e-07" width="18" height="18" transform="rotate(90 18 7.86805e-07)" fill="#D9D9D9"/>
</mask>
<g mask="url(#mask0_52_466)">
<path d="M3.1875 9.03746C3.1875 7.41533 3.75194 6.03483 4.88081 4.89596C6.00969 3.75696 7.38275 3.18746 9 3.18746L9.58556 3.18746L8.19806 1.79996L8.98837 1.00964L11.7289 3.74996L8.98837 6.49027L8.19806 5.69996L9.58556 4.31246L9 4.31246C7.69712 4.31246 6.59013 4.77108 5.679 5.68833C4.768 6.60571 4.3125 7.72208 4.3125 9.03746C4.3125 9.34808 4.34637 9.65839 4.41412 9.96839C4.482 10.2785 4.58369 10.5812 4.71919 10.8765L3.87544 11.7202C3.64856 11.2981 3.47719 10.8623 3.36131 10.4128C3.24544 9.96314 3.1875 9.50471 3.1875 9.03746ZM6.27112 14.25L9.01162 11.5096L9.80194 12.3L8.41444 13.6875L9 13.6875C10.3029 13.6875 11.4099 13.2288 12.321 12.3116C13.232 11.3942 13.6875 10.2778 13.6875 8.96246C13.6875 8.65183 13.6536 8.34152 13.5859 8.03152C13.518 7.72139 13.4163 7.41871 13.2808 7.12346L14.1246 6.27971C14.3514 6.70183 14.5228 7.13764 14.6387 7.58714C14.7546 8.03677 14.8125 8.49521 14.8125 8.96246C14.8125 10.5846 14.2481 11.9651 13.1192 13.104C11.9903 14.243 10.6172 14.8125 9 14.8125L8.41444 14.8125L9.80194 16.2L9.01162 16.9903L6.27112 14.25Z" fill="white"/>
</g>
</svg>
