<svg width="60" height="60" viewBox="0 0 60 60" fill="none" xmlns="http://www.w3.org/2000/svg">
<mask id="mask0_68_902" style="mask-type:alpha" maskUnits="userSpaceOnUse" x="0" y="0" width="60" height="60">
<rect width="60" height="60" fill="#D9D9D9"/>
</mask>
<g mask="url(#mask0_68_902)">
<path d="M26.4907 52.7881V44.4374L44.4088 26.5962C44.7867 26.2245 45.2042 25.9456 45.6613 25.7593C46.118 25.5735 46.5915 25.4806 47.0819 25.4806C47.5723 25.4806 48.0473 25.5695 48.5069 25.7474C48.9669 25.9254 49.383 26.2002 49.755 26.5718L52.625 29.4324C52.9871 29.8204 53.2611 30.2443 53.4469 30.7043C53.6328 31.1643 53.7338 31.6345 53.75 32.1149C53.7659 32.5958 53.6744 33.0662 53.4757 33.5262C53.2769 33.9862 52.9965 34.4102 52.6344 34.7981L34.7213 52.7881H26.4907ZM30.2407 49.0381H33.125L44.0913 38.0718L42.6494 36.6293L41.135 35.1393L30.2407 46.0337V49.0381ZM26.875 23.1968L24.2407 20.5243L29.4519 15.3368H19.4182C19.1073 16.3239 18.5961 17.1731 17.8844 17.8843C17.1732 18.596 16.324 19.1072 15.3369 19.4181V40.5818C16.6027 40.9952 17.6484 41.741 18.4738 42.8193C19.2988 43.8981 19.7113 45.1377 19.7113 46.5381C19.7113 48.2743 19.1042 49.7502 17.89 50.9656C16.6759 52.1806 15.2017 52.7881 13.4675 52.7881C11.733 52.7881 10.2567 52.1806 9.03879 50.9656C7.82087 49.7502 7.21191 48.2743 7.21191 46.5381C7.21191 45.1377 7.62441 43.9045 8.44941 42.8387C9.27483 41.7733 10.3207 41.0337 11.5869 40.62V19.4181C10.3207 19.0047 9.27483 18.2589 8.44941 17.1806C7.62441 16.1018 7.21191 14.8622 7.21191 13.4618C7.21191 11.7256 7.81941 10.2497 9.03441 9.03432C10.2498 7.81932 11.7257 7.21182 13.4619 7.21182C14.8623 7.21182 16.1019 7.62432 17.1807 8.44932C18.259 9.27474 19.0048 10.3206 19.4182 11.5868H29.4519L24.2407 6.39932L26.875 3.7262L36.6107 13.4618L26.875 23.1968ZM46.5325 7.21182C48.2671 7.21182 49.7434 7.81891 50.9613 9.03307C52.1792 10.2472 52.7882 11.7216 52.7882 13.4562C52.7882 15.1904 52.1811 16.6664 50.9669 17.8843C49.7527 19.1022 48.2784 19.7112 46.5438 19.7112C44.8096 19.7112 43.3336 19.1041 42.1157 17.8899C40.8977 16.6758 40.2888 15.2016 40.2888 13.4674C40.2888 11.7329 40.8959 10.2566 42.11 9.0387C43.3242 7.82078 44.7984 7.21182 46.5325 7.21182ZM13.4619 49.0381C14.1702 49.0381 14.764 48.7985 15.2432 48.3193C15.7223 47.8402 15.9619 47.2464 15.9619 46.5381C15.9619 45.8297 15.7223 45.236 15.2432 44.7568C14.764 44.2777 14.1702 44.0381 13.4619 44.0381C12.7536 44.0381 12.1598 44.2777 11.6807 44.7568C11.2015 45.236 10.9619 45.8297 10.9619 46.5381C10.9619 47.2464 11.2015 47.8402 11.6807 48.3193C12.1598 48.7985 12.7536 49.0381 13.4619 49.0381ZM13.4619 15.9618C14.1702 15.9618 14.764 15.7222 15.2432 15.2431C15.7223 14.7639 15.9619 14.1702 15.9619 13.4618C15.9619 12.7535 15.7223 12.1597 15.2432 11.6806C14.764 11.2014 14.1702 10.9618 13.4619 10.9618C12.7536 10.9618 12.1598 11.2014 11.6807 11.6806C11.2015 12.1597 10.9619 12.7535 10.9619 13.4618C10.9619 14.1702 11.2015 14.7639 11.6807 15.2431C12.1598 15.7222 12.7536 15.9618 13.4619 15.9618ZM46.5382 15.9618C47.2465 15.9618 47.8402 15.7222 48.3194 15.2431C48.7986 14.7639 49.0382 14.1702 49.0382 13.4618C49.0382 12.7535 48.7986 12.1597 48.3194 11.6806C47.8402 11.2014 47.2465 10.9618 46.5382 10.9618C45.8298 10.9618 45.2361 11.2014 44.7569 11.6806C44.2777 12.1597 44.0382 12.7535 44.0382 13.4618C44.0382 14.1702 44.2777 14.7639 44.7569 15.2431C45.2361 15.7222 45.8298 15.9618 46.5382 15.9618Z" fill="url(#paint0_linear_68_902)"/>
</g>
<defs>
<linearGradient id="paint0_linear_68_902" x1="30.4819" y1="3.7262" x2="30.4819" y2="52.7881" gradientUnits="userSpaceOnUse">
<stop stop-color="#D0DDE4"/>
<stop offset="1" stop-color="#717AA1"/>
</linearGradient>
</defs>
</svg>
