<svg width="60" height="60" viewBox="0 0 60 60" fill="none" xmlns="http://www.w3.org/2000/svg">
<mask id="mask0_231_114" style="mask-type:alpha" maskUnits="userSpaceOnUse" x="0" y="0" width="60" height="60">
<rect width="60" height="60" fill="#D9D9D9"/>
</mask>
<g mask="url(#mask0_231_114)">
<path d="M33.9131 30.9713C37.2594 28.625 39.8908 26.04 41.8075 23.2163C43.7242 20.3925 44.6825 17.5912 44.6825 14.8125C44.6825 13.2708 44.3956 12.0833 43.8219 11.25C43.2481 10.4167 42.4821 10 41.5237 10C39.325 10 37.4438 11.6642 35.88 14.9925C34.3158 18.3213 33.5337 22.2613 33.5337 26.8125C33.5337 27.6204 33.5642 28.3688 33.625 29.0575C33.6858 29.7467 33.7819 30.3846 33.9131 30.9713ZM8.72625 51.25V46.9231H13.0531V51.25H8.72625ZM18.2694 51.25V46.9231H22.5963V51.25H18.2694ZM27.8125 51.25V46.9231H32.1394V51.25H27.8125ZM37.3556 51.25V46.9231H41.6825V51.25H37.3556ZM46.8988 51.25V46.9231H51.2256V51.25H46.8988ZM8.86063 41.6106L6.25 39L10.25 35L6.25 31L8.86063 28.3894L12.8606 32.3894L16.8606 28.3894L19.4713 31L15.4712 35L19.4713 39L16.8606 41.6106L12.8606 37.6106L8.86063 41.6106ZM37.8319 40C36.5819 40 35.456 39.7323 34.4544 39.1969C33.4527 38.6619 32.609 37.8285 31.9231 36.6969C30.9135 37.2802 29.8646 37.8092 28.7763 38.2838C27.6883 38.7579 26.569 39.2242 25.4181 39.6825L24.1013 36.1731C25.2358 35.7406 26.3344 35.2767 27.3969 34.7813C28.4594 34.2863 29.4825 33.7598 30.4662 33.2019C30.2258 32.2852 30.0456 31.2731 29.9256 30.1656C29.8052 29.0585 29.745 27.864 29.745 26.5819C29.745 20.6619 30.8565 15.7933 33.0794 11.9762C35.3019 8.15875 38.1167 6.25 41.5237 6.25C43.5625 6.25 45.2173 7.02812 46.4881 8.58437C47.759 10.1402 48.3944 12.2675 48.3944 14.9663C48.3944 18.4696 47.2229 21.9431 44.88 25.3869C42.5367 28.831 39.3202 31.9169 35.2306 34.6444C35.5865 35.1923 35.9927 35.6033 36.4494 35.8775C36.906 36.1517 37.4052 36.2888 37.9469 36.2888C39.1585 36.2888 40.4992 35.6252 41.9688 34.2981C43.4383 32.971 44.7644 31.2067 45.9469 29.005L49.3075 30.5769C49.0479 31.5898 48.8908 32.5963 48.8363 33.5963C48.7821 34.5963 48.9312 35.4633 49.2837 36.1975C49.7646 35.9571 50.2702 35.6229 50.8006 35.195C51.331 34.7671 51.92 34.154 52.5675 33.3556L55.5194 35.6731C54.436 37.0127 53.3102 38.0687 52.1419 38.8412C50.9735 39.6137 49.8813 40 48.865 40C48.0542 40 47.341 39.6594 46.7256 38.9781C46.1106 38.2973 45.6379 37.3671 45.3075 36.1875C44.2213 37.3896 43.0177 38.3254 41.6969 38.995C40.3765 39.665 39.0881 40 37.8319 40Z" fill="#1C1B1F"/>
<path d="M33.9131 30.9713C37.2594 28.625 39.8908 26.04 41.8075 23.2163C43.7242 20.3925 44.6825 17.5912 44.6825 14.8125C44.6825 13.2708 44.3956 12.0833 43.8219 11.25C43.2481 10.4167 42.4821 10 41.5237 10C39.325 10 37.4438 11.6642 35.88 14.9925C34.3158 18.3213 33.5337 22.2613 33.5337 26.8125C33.5337 27.6204 33.5642 28.3688 33.625 29.0575C33.6858 29.7467 33.7819 30.3846 33.9131 30.9713ZM8.72625 51.25V46.9231H13.0531V51.25H8.72625ZM18.2694 51.25V46.9231H22.5963V51.25H18.2694ZM27.8125 51.25V46.9231H32.1394V51.25H27.8125ZM37.3556 51.25V46.9231H41.6825V51.25H37.3556ZM46.8988 51.25V46.9231H51.2256V51.25H46.8988ZM8.86063 41.6106L6.25 39L10.25 35L6.25 31L8.86063 28.3894L12.8606 32.3894L16.8606 28.3894L19.4713 31L15.4712 35L19.4713 39L16.8606 41.6106L12.8606 37.6106L8.86063 41.6106ZM37.8319 40C36.5819 40 35.456 39.7323 34.4544 39.1969C33.4527 38.6619 32.609 37.8285 31.9231 36.6969C30.9135 37.2802 29.8646 37.8092 28.7763 38.2838C27.6883 38.7579 26.569 39.2242 25.4181 39.6825L24.1013 36.1731C25.2358 35.7406 26.3344 35.2767 27.3969 34.7813C28.4594 34.2863 29.4825 33.7598 30.4662 33.2019C30.2258 32.2852 30.0456 31.2731 29.9256 30.1656C29.8052 29.0585 29.745 27.864 29.745 26.5819C29.745 20.6619 30.8565 15.7933 33.0794 11.9762C35.3019 8.15875 38.1167 6.25 41.5237 6.25C43.5625 6.25 45.2173 7.02812 46.4881 8.58437C47.759 10.1402 48.3944 12.2675 48.3944 14.9663C48.3944 18.4696 47.2229 21.9431 44.88 25.3869C42.5367 28.831 39.3202 31.9169 35.2306 34.6444C35.5865 35.1923 35.9927 35.6033 36.4494 35.8775C36.906 36.1517 37.4052 36.2888 37.9469 36.2888C39.1585 36.2888 40.4992 35.6252 41.9688 34.2981C43.4383 32.971 44.7644 31.2067 45.9469 29.005L49.3075 30.5769C49.0479 31.5898 48.8908 32.5963 48.8363 33.5963C48.7821 34.5963 48.9312 35.4633 49.2837 36.1975C49.7646 35.9571 50.2702 35.6229 50.8006 35.195C51.331 34.7671 51.92 34.154 52.5675 33.3556L55.5194 35.6731C54.436 37.0127 53.3102 38.0687 52.1419 38.8412C50.9735 39.6137 49.8813 40 48.865 40C48.0542 40 47.341 39.6594 46.7256 38.9781C46.1106 38.2973 45.6379 37.3671 45.3075 36.1875C44.2213 37.3896 43.0177 38.3254 41.6969 38.995C40.3765 39.665 39.0881 40 37.8319 40Z" fill="url(#paint0_linear_231_114)"/>
</g>
<defs>
<linearGradient id="paint0_linear_231_114" x1="30.8847" y1="6.25" x2="30.8847" y2="51.25" gradientUnits="userSpaceOnUse">
<stop stop-color="#D0DDE4"/>
<stop offset="1" stop-color="#717AA1"/>
</linearGradient>
</defs>
</svg>
