<svg width="60" height="60" viewBox="0 0 60 60" fill="none" xmlns="http://www.w3.org/2000/svg">
<mask id="mask0_231_126" style="mask-type:alpha" maskUnits="userSpaceOnUse" x="0" y="0" width="60" height="60">
<rect width="60" height="60" fill="#D9D9D9"/>
</mask>
<g mask="url(#mask0_231_126)">
<path d="M45.375 27.1631C45.0192 25.359 44.3885 23.6956 43.4831 22.1731C42.5777 20.6506 41.2404 19.0785 39.4712 17.4569V24.2788H35.7212V10.8175H49.1825V14.5675H41.9131C44.1377 16.5354 45.8108 18.5498 46.9325 20.6106C48.0546 22.6715 48.7981 24.8556 49.1631 27.1631H45.375ZM36.49 42.7888H50V36.3944H36.49V42.7888ZM35.8656 46.5381C34.9973 46.5381 34.2594 46.2344 33.6519 45.6269C33.0444 45.0194 32.7406 44.2815 32.7406 43.4131V35.7694C32.7406 34.901 33.0444 34.1631 33.6519 33.5556C34.2594 32.9481 34.9973 32.6444 35.8656 32.6444H50.625C51.4929 32.6444 52.2308 32.9481 52.8387 33.5556C53.4462 34.1631 53.75 34.901 53.75 35.7694V43.4131C53.75 44.2815 53.4462 45.0194 52.8387 45.6269C52.2308 46.2344 51.4929 46.5381 50.625 46.5381H35.8656ZM10.8175 49.1825V45.4325H18.0869C15.529 43.2146 13.6458 40.83 12.4375 38.2788C11.2292 35.7275 10.625 33 10.625 30.0963C10.625 25.7179 11.9175 21.8238 14.5025 18.4138C17.0875 15.0033 20.3783 12.6956 24.375 11.4906V15.4425C21.4263 16.58 19.0223 18.4821 17.1631 21.1488C15.3044 23.8154 14.375 26.7979 14.375 30.0963C14.375 32.4896 14.8669 34.6944 15.8506 36.7106C16.8348 38.7273 18.3942 40.6796 20.5287 42.5675V35.7213H24.2787V49.1825H10.8175ZM30.2406 53.75V50H56.25V53.75H30.2406Z" fill="url(#paint0_linear_231_126)"/>
</g>
<defs>
<linearGradient id="paint0_linear_231_126" x1="33.4375" y1="10.8175" x2="33.4375" y2="53.75" gradientUnits="userSpaceOnUse">
<stop stop-color="#D0DDE4"/>
<stop offset="1" stop-color="#717AA1"/>
</linearGradient>
</defs>
</svg>
